<svg viewBox="0 0 1060 219" fill="none" xmlns="http://www.w3.org/2000/svg">
<path d="M439.467 172.935L421.468 141.285L441.733 115.353H395.937L385.738 131.786L357.84 81.3547H320.109L372.991 172.935H417.219L408.154 153.536L439.467 172.935Z" fill="#0C2444"/>
<path d="M197.834 81.3547H250.663C262.152 81.3547 272.201 83.2751 280.811 87.116C289.42 90.9568 296.262 96.5332 301.339 103.843C306.416 111.154 308.954 120.077 308.954 130.612C308.954 141.147 306.326 150.115 301.069 157.514C295.901 164.823 288.788 169.362 279.728 171.134L299.715 204H255.445L237.94 172.936H240.556C247.955 172.936 253.819 170.814 258.15 166.568C262.481 162.322 264.646 156.401 264.646 148.806C264.646 140.239 262.165 133.582 257.203 128.835C252.33 124.089 245.564 121.714 236.903 121.714H221.747V204H182.5V81.3547H197.834Z" fill="#0C2444"/>
<path d="M117.707 103.012L147.218 51L107.512 0L0 186.046H69.4665L64.3235 218.067L124.654 113.84H101.467L117.707 103.012Z" fill="#3395FF"/>
<path d="M517.616 177.309C530.066 177.309 540.264 173.161 548.204 164.863V172.916H581.587V111.057C581.587 103.21 579.512 96.4239 575.361 90.6979C571.211 84.972 565.618 80.6099 558.58 77.6111C551.632 74.6123 543.873 73.1128 535.304 73.1128C526.012 73.1128 517.661 74.8872 510.252 78.4359C502.843 81.9846 496.933 87.0326 492.529 93.5786C488.169 100.125 485.989 107.828 485.989 116.688C485.989 125.548 488.169 133.251 492.529 139.797C496.933 146.343 502.843 151.391 510.252 154.94C517.661 158.488 526.012 160.263 535.304 160.263C543.783 160.263 551.452 158.421 558.31 154.735V96.4679C561.197 101.037 562.641 106.353 562.641 112.417C562.641 119.507 560.702 125.302 556.821 129.802C552.942 134.302 547.483 136.551 540.444 136.551C530.7 136.551 525.828 129.802 525.828 116.307V115.353H485.989C487.899 135.531 492.053 151.01 498.452 161.792C504.851 172.137 511.239 177.309 517.616 177.309Z" fill="#0C2444"/>
<path d="M666.969 177.309C679.419 177.309 689.617 173.161 697.558 164.863V172.916H730.94V111.057C730.94 103.21 728.865 96.4239 724.714 90.6979C720.564 84.972 714.971 80.6099 707.933 77.6111C700.985 74.6123 693.226 73.1128 684.657 73.1128C675.365 73.1128 667.014 74.8872 659.605 78.4359C652.196 81.9846 646.286 87.0326 641.882 93.5786C637.521 100.125 635.342 107.828 635.342 116.688C635.342 125.548 637.521 133.251 641.882 139.797C646.286 146.343 652.196 151.391 659.605 154.94C667.014 158.488 675.365 160.263 684.657 160.263C693.136 160.263 700.805 158.421 707.663 154.735V96.4679C710.55 101.037 711.994 106.353 711.994 112.417C711.994 119.507 710.055 125.302 706.174 129.802C702.294 134.302 696.836 136.551 689.797 136.551C680.053 136.551 675.181 129.802 675.181 116.307V115.353H635.342C637.251 135.531 641.406 151.01 647.805 161.792C654.204 172.137 660.592 177.309 666.969 177.309Z" fill="#0C44"/>
<path d="M789.742 129.53H747.283L743.085 172.936H784.873C793.633 172.936 798.013 169.249 798.013 161.876V157.062C798.013 149.688 801.353 146.002 808.034 146.002H813.065V113.84H800.758C798.931 113.84 797.104 114.153 795.276 114.779C793.449 115.405 791.604 116.299 789.742 117.461V129.53Z" fill="#0C2444"/>
<path d="M822.469 172.936H863.636V164.269C863.636 156.422 865.711 149.636 869.862 143.91C874.012 138.184 879.605 133.822 886.643 130.823C893.591 127.824 901.35 126.325 909.919 126.325C919.211 126.325 927.562 128.099 934.972 131.648C942.38 135.197 948.291 140.245 952.695 146.791C957.054 153.337 959.234 161.04 959.234 169.9V228.312H919.395V213.331C916.692 216.599 913.623 219.051 910.19 220.685C906.756 222.32 902.829 223.137 898.409 223.137C890.334 223.137 883.331 220.957 877.399 216.599C871.467 212.24 868.502 206.111 868.502 198.21C868.502 191.127 871.196 185.352 876.586 180.884C882.164 176.416 889.544 174.182 898.724 174.182H918.041V169.9C918.041 162.81 916.102 157.015 912.221 152.515C908.342 148.016 902.883 145.766 895.845 145.766C886.1 145.766 881.228 152.515 881.228 166.011V172.936H822.469ZM918.041 190.72V186H905.043C899.853 186 897.258 188.468 897.258 193.402C897.258 198.577 899.785 201.165 904.84 201.165C909.128 201.165 912.422 199.762 914.725 196.958C916.936 194.22 918.041 192.14 918.041 190.72Z" fill="#0C2444"/>
<path d="M1021.03 129.418L991.606 220.781L973.916 261H933.216L960.925 197.893L930.373 129.418H972.155L982.311 169.9L1002.36 129.418H1042.83L1017.37 182.23L1060 129.418H1021.03Z" fill="#0C2444"/>
</svg>
